HIERARCHY
ROOT Hips
{
	OFFSET 0.000000 0.000000 0.000000
	CHANNELS 6 Xposition Yposition Zposition Zrotation Yrotation Xrotation 
	JOINT LHipJoint
	{
		OFFSET 0.000000 0.000000 0.000000
		CHANNELS 3 Zrotation Yrotation Xrotation
		JOINT LeftUpLeg
		{
			OFFSET 8.178360 -10.767780 5.035740
			CHANNELS 3 Zrotation Yrotation Xrotation
			JOINT LeftLeg
			{
				OFFSET 14.688660 -40.356780 0.000000
				CHANNELS 3 Zrotation Yrotation Xrotation
				JOINT LeftFoot
				{
					OFFSET 15.373200 -42.237540 0.000000
					CHANNELS 3 Zrotation Yrotation Xrotation
					JOINT LeftToeBase
					{
						OFFSET 0.945840 -2.598660 13.935300
						CHANNELS 3 Zrotation Yrotation Xrotation
						End Site
						{
							OFFSET 0.000000 0.000000 0.000000
						}
					}
				}
			}
		}
	}
	JOINT RHipJoint
	{
		OFFSET 0.000000 0.000000 0.000000
		CHANNELS 3 Zrotation Yrotation Xrotation
		JOINT RightUpLeg
		{
			OFFSET -7.833120 -10.767780 5.035740
			CHANNELS 3 Zrotation Yrotation Xrotation
			JOINT RightLeg
			{
				OFFSET -15.255180 -41.913300 0.000000
				CHANNELS 3 Zrotation Yrotation Xrotation
				JOINT RightFoot
				{
					OFFSET -15.409560 -42.337380 0.000000
					CHANNELS 3 Zrotation Yrotation Xrotation
					JOINT RightToeBase
					{
						OFFSET -0.988380 -2.715540 14.178900
						CHANNELS 3 Zrotation Yrotation Xrotation
						End Site
						{
							OFFSET 0.000000 0.000000 0.000000
						}
					}
				}
			}
		}
	}
	JOINT LowerBack
	{
		OFFSET 0.000000 0.000000 0.000000
		CHANNELS 3 Zrotation Yrotation Xrotation
		JOINT Spine
		{
			OFFSET 0.169620 12.213540 -1.160280
			CHANNELS 3 Zrotation Yrotation Xrotation
			JOINT Spine1
			{
				OFFSET 0.340320 12.293100 -0.256500
				CHANNELS 3 Zrotation Yrotation Xrotation
				JOINT Neck
				{
					OFFSET 0.000000 0.000000 0.000000
					CHANNELS 3 Zrotation Yrotation Xrotation
					JOINT Neck1
					{
						OFFSET -0.325020 10.477440 1.032120
						CHANNELS 3 Zrotation Yrotation Xrotation
						JOINT Head
						{
							OFFSET 0.624420 10.568160 -0.743820
							CHANNELS 3 Zrotation Yrotation Xrotation
							End Site
							{
								OFFSET 0.000000 0.000000 0.000000
							}
						}
					}
				}
				JOINT LeftShoulder
				{
					OFFSET 0.000000 0.000000 0.000000
					CHANNELS 3 Zrotation Yrotation Xrotation
					JOINT LeftArm
					{
						OFFSET 20.174460 7.205340 -1.867260
						CHANNELS 3 Zrotation Yrotation Xrotation
						JOINT LeftForeArm
						{
							OFFSET 29.898000 -0.000000 -0.000000
							CHANNELS 3 Zrotation Yrotation Xrotation
							JOINT LeftHand
							{
								OFFSET 20.901360 -0.000000 -0.000000
								CHANNELS 3 Zrotation Yrotation Xrotation
								JOINT LeftFingerBase
								{
									OFFSET 0.000000 0.000000 0.000000
									CHANNELS 3 Zrotation Yrotation Xrotation
									JOINT LeftHandIndex1
									{
										OFFSET 4.291560 -0.000000 -0.000000
										CHANNELS 3 Zrotation Yrotation Xrotation
										End Site
										{
											OFFSET 0.000000 0.000000 0.000000
										}
									}
								}
								JOINT LThumb
								{
									OFFSET 0.000000 0.000000 0.000000
									CHANNELS 3 Zrotation Yrotation Xrotation
									End Site
									{
										OFFSET 0.000000 0.000000 0.000000
									}
								}
							}
						}
					}
				}
				JOINT RightShoulder
				{
					OFFSET 0.000000 0.000000 0.000000
					CHANNELS 3 Zrotation Yrotation Xrotation
					JOINT RightArm
					{
						OFFSET -18.819600 8.244300 -2.427900
						CHANNELS 3 Zrotation Yrotation Xrotation
						JOINT RightForeArm
						{
							OFFSET -31.451400 -0.000000 -0.000000
							CHANNELS 3 Zrotation Yrotation Xrotation
							JOINT RightHand
							{
								OFFSET -20.665020 -0.000000 -0.000000
								CHANNELS 3 Zrotation Yrotation Xrotation
								JOINT RightFingerBase
								{
									OFFSET 0.000000 0.000000 0.000000
									CHANNELS 3 Zrotation Yrotation Xrotation
									JOINT RightHandIndex1
									{
										OFFSET -3.735180 -0.000000 -0.000000
										CHANNELS 3 Zrotation Yrotation Xrotation
										End Site
										{
											OFFSET 0.000000 0.000000 0.000000
										}
									}
								}
								JOINT RThumb
								{
									OFFSET 0.000000 0.000000 0.000000
									CHANNELS 3 Zrotation Yrotation Xrotation
									End Site
									{
										OFFSET 0.000000 0.000000 0.000000
									}
								}
							}
						}
					}
				}
			}
		}
	}
}
MOTION
Frames:	4
Frame Time:	0.0333333
95.746932 107.379606 -69.247260 1.491530 -30.619399 2.655958 -3.222043 1.376782 2.554354 -16.664865 -5.742105 -9.703549 0.123659 7.682474 23.130153 0.196489 -0.022920 -6.033830 0.544800 -4.728700 -13.136200 0.823721 -1.278367 1.206631 22.751460 2.445288 -10.056548 -2.148958 -9.597591 29.133659 -0.042455 -2.717521 -10.405514 -0.141600 -2.425600 6.683300 -0.796706 -0.136119 4.419400 1.352033 -0.194301 0.843193 0.239919 -0.131318 -3.091776 -11.856740 -6.191647 -13.874661 5.491281 -6.439674 14.132939 3.654100 -3.528800 11.056200 -6.384532 -0.603448 -1.682259 -84.837472 5.647534 19.420505 16.809761 -23.872641 -4.230876 -1.218176 -2.349463 7.878860 18.573390 23.675246 8.863700 -7.125000 0.000000 0.000000 -11.544200 57.129000 -3.461700 5.165775 1.258879 -1.064818 83.008443 -3.415984 16.517980 -15.508824 23.012409 -3.351890 0.283077 -0.232685 7.187824 -13.106529 10.618534 -2.560600 7.125000 0.000000 0.000000 9.627500 -18.962400 6.062500 
95.661078 107.336976 -69.257466 1.304549 -30.647252 2.624913 -3.213100 1.383989 2.542815 -16.467318 -5.993523 -9.639329 0.183395 7.813697 23.512174 0.174650 0.180846 -6.238655 0.494700 -4.509600 -12.514800 0.815049 -1.285435 1.207755 22.993979 2.385609 -9.798975 -2.116509 -9.534335 28.947268 -0.051226 -2.672121 -10.395569 -0.147400 -2.474000 6.817600 -0.596813 -0.134940 4.490153 1.463161 -0.180312 0.923457 0.312342 -0.124510 -3.008177 -12.006036 -6.064087 -13.697065 5.155000 -6.222678 14.142744 3.584800 -3.488800 10.985900 -6.385765 -0.609946 -1.680833 -85.241217 5.790789 18.859162 16.854814 -23.919605 -4.250688 -1.166766 -2.357783 7.645613 18.058069 23.484976 8.537700 -7.125000 0.000000 0.000000 -12.034500 56.821900 -3.521900 5.188214 1.221728 -1.064699 82.831918 -3.501151 15.961449 -15.166413 22.534859 -3.203695 0.276020 -0.250319 7.829302 -13.023642 10.863996 -2.604200 7.125000 0.000000 0.000000 9.680400 -18.703800 6.153200 
95.560212 107.290746 -69.231048 1.213466 -30.915919 2.490552 -3.200832 1.405229 2.550428 -16.408495 -6.076094 -9.445249 0.219849 7.898056 23.758506 0.117348 0.625081 -6.524726 0.591300 -4.922900 -13.688900 0.808510 -1.288109 1.201546 23.143721 2.515329 -9.486029 -2.119143 -9.533744 28.957298 -0.046186 -2.700772 -10.420949 -0.162700 -2.598900 7.164000 -0.395102 0.028559 4.634473 1.411126 0.059524 1.017176 0.095378 -0.008830 -2.948944 -12.027993 -5.993133 -13.505645 5.326013 -6.155746 14.138797 3.673800 -3.446300 10.941700 -6.382735 -0.598044 -1.672893 -84.987961 5.801452 19.021371 16.894885 -23.987838 -4.273123 -1.173047 -2.377977 7.288551 18.283948 23.712575 8.728800 -7.125000 0.000000 0.000000 -11.900700 57.114900 -3.566500 5.183700 1.228366 -1.058181 82.920384 -3.798783 15.664507 -15.064419 22.395653 -3.158923 0.288357 -0.259462 7.702279 -13.383263 11.039804 -2.723400 7.125000 0.000000 0.000000 9.415100 -18.496800 6.023600 
95.435328 107.318964 -69.300696 1.180909 -30.677036 2.598001 -3.181270 1.379369 2.521759 -16.232899 -5.960384 -9.844051 0.290529 8.026321 24.135291 0.194208 0.119144 -6.410834 0.636600 -5.104900 -14.208100 0.813209 -1.283334 1.203166 23.356455 2.679355 -9.412558 -2.076579 -9.464845 28.745261 0.061177 -3.172843 -10.354512 -0.173300 -2.681900 7.394400 -0.389573 -0.038273 4.729697 1.400486 -0.030788 1.036378 0.097819 -0.049502 -2.937588 -11.874719 -5.960923 -13.704425 5.115093 -6.136289 14.452621 3.570100 -3.451700 11.088600 -6.378037 -0.617890 -1.667784 -84.678012 5.775714 19.196414 16.879562 -23.984215 -4.271881 -1.126591 -2.391174 7.309438 17.680387 23.840553 8.454800 -7.125000 0.000000 0.000000 -12.660100 57.113400 -3.798500 5.189641 1.214208 -1.065798 82.989774 -3.756333 15.307368 -14.991948 22.308077 -3.134574 0.259092 -0.256615 8.187104 -12.603282 10.958808 -2.539300 7.125000 0.000000 0.000000 9.982100 -18.625300 6.368400 
